<?xml version="1.0" encoding="utf-8"?>
<!-- Generator: Adobe Illustrator 25.2.3, SVG Export Plug-In . SVG Version: 6.00 Build 0)  -->
<svg version="1.1" xmlns="http://www.w3.org/2000/svg" xmlns:xlink="http://www.w3.org/1999/xlink" x="0px" y="0px"
	 viewBox="0 0 1080 1080" style="enable-background:new 0 0 1080 1080;" xml:space="preserve">
<style type="text/css">
	.st0{fill:#EAA2B8;}
	.st1{fill:#4F4145;}
	.st2{display:none;}
	.st3{display:inline;fill:#FFFFFF;}
</style>
<g id="Layer_1">
	<path class="st0" d="M540.48,140.18L540.48,140.18c-220.87,0-399.99,179.1-399.99,399.98c0,44.16,7.15,86.63,20.38,126.35h119.62
		V329.97l260,260l260-260v336.54h119.63c13.22-39.73,20.38-82.19,20.38-126.35C940.49,319.28,761.36,140.18,540.48,140.18z
		 M657.38,380.52c-36.96,38.78-73.14,72.49-110.09,111.27c-0.09,0.1-0.19,0.19-0.29,0.29c-3.38,3.22-8.73,3.09-11.95-0.29
		L423.59,380.43c-28.11-29.56-28.15-76.88,0-106.42c14.07-14.77,32.62-22.18,51.23-22.18s37.24,7.41,51.32,22.18l14.35,15.05
		l14.35-14.96c28.15-29.54,74.4-29.54,102.55,0C685.53,303.64,685.53,350.98,657.38,380.52z"/>
	<path id="path26" class="st1" d="M367.23,536.27v211.76H198.69c70.22,115.2,197.03,192.13,341.79,192.13
		s271.58-76.94,341.79-192.13H713.73V536.27L540.48,709.52L367.23,536.27z"/>
</g>
<g id="Layer_2" class="st2">
	<path class="st0" d="M657.38,380.52c-36.96,38.78-73.14,72.49-110.09,111.27c-0.09,0.1-0.19,0.19-0.29,0.29
		c-3.38,3.22-8.73,3.09-11.95-0.29L423.59,380.43c-28.11-29.56-28.15-76.88,0-106.42c14.07-14.77,32.62-22.18,51.23-22.18
		s37.24,7.41,51.32,22.18l14.35,15.05l14.35-14.96c28.15-29.54,74.4-29.54,102.55,0C685.53,303.64,685.53,350.98,657.38,380.52z"/>
	<path class="st3" d="M254.78,551.07c0.49,20.4-0.17,39.23,0.32,59.63c0,0.05,0,0.1,0,0.15c-0.04,1.78-1.52,3.18-3.3,3.14
		l-60.03,0.03c-15.54-0.39-28.29-13.13-28.67-28.67c-0.19-7.77,2.81-14.76,7.83-19.78c5.01-5.01,12.03-8.04,19.8-7.85l7.92,0.19
		l-0.17-7.9c-0.37-15.54,12.08-28,27.63-27.63C241.66,522.78,254.41,535.53,254.78,551.07z"/>
</g>
</svg>
